HIERARCHY
ROOT newVegas:Hips
{
	OFFSET 0.000000 96.479958 0.000000
	CHANNELS 6 Xposition Yposition Zposition Xrotation Yrotation Zrotation
	JOINT newVegas:Pelvis
	{
		OFFSET 0.000000 0.000000 0.000000
		CHANNELS 3 Xrotation Yrotation Zrotation
		JOINT newVegas:LeftUpLeg
		{
			OFFSET 18.735201 -5.666702 -4.541200
			CHANNELS 3 Xrotation Yrotation Zrotation
			JOINT newVegas:LeftLeg
			{
				OFFSET -0.021200 -31.938179 0.493100
				CHANNELS 3 Xrotation Yrotation Zrotation
				JOINT newVegas:LeftFoot
				{
					OFFSET 0.021200 -31.938179 -4.336299
					CHANNELS 3 Xrotation Yrotation Zrotation
					JOINT newVegas:LeftToeBase
					{
						OFFSET 0.943001 -26.722000 15.023500
						CHANNELS 3 Xrotation Yrotation Zrotation
						End Site
						{
							OFFSET 0.000000 30.670183 0.000000
						}
					}
				}
				JOINT newVegas:Left_PantLeg
				{
					OFFSET 0.663870 -9.044666 -1.108900
					CHANNELS 3 Xrotation Yrotation Zrotation
					End Site
					{
						OFFSET 1.415995 20.635357 0.000000
					}
				}
			}
		}
		JOINT newVegas:RightUpLeg
		{
			OFFSET -18.735201 -5.666702 -4.541200
			CHANNELS 3 Xrotation Yrotation Zrotation
			JOINT newVegas:RightLeg
			{
				OFFSET 0.018946 -31.938133 0.493100
				CHANNELS 3 Xrotation Yrotation Zrotation
				JOINT newVegas:RightFoot
				{
					OFFSET -0.018946 -31.938126 -4.336299
					CHANNELS 3 Xrotation Yrotation Zrotation
					JOINT newVegas:RightToeBase
					{
						OFFSET -0.943001 -26.722004 15.023500
						CHANNELS 3 Xrotation Yrotation Zrotation
						End Site
						{
							OFFSET 0.000000 30.670187 0.000000
						}
					}
				}
				JOINT newVegas:Right_PantLeg
				{
					OFFSET -0.661674 -9.044716 -1.108900
					CHANNELS 3 Xrotation Yrotation Zrotation
					End Site
					{
						OFFSET -1.415958 20.635269 0.000000
					}
				}
			}
		}
	}
	JOINT newVegas:Spine
	{
		OFFSET 0.000000 10.199997 -0.299500
		CHANNELS 3 Xrotation Yrotation Zrotation
		JOINT newVegas:Spine1
		{
			OFFSET 0.000000 11.900002 -1.516600
			CHANNELS 3 Xrotation Yrotation Zrotation
			JOINT newVegas:Spine2
			{
				OFFSET 0.000000 13.600006 -2.842500
				CHANNELS 3 Xrotation Yrotation Zrotation
				JOINT newVegas:Neck
				{
					OFFSET 0.000000 9.624100 -2.890100
					CHANNELS 3 Xrotation Yrotation Zrotation
					JOINT newVegas:Head
					{
						OFFSET 0.000000 14.068802 -1.351900
						CHANNELS 3 Xrotation Yrotation Zrotation
						JOINT newVegas:Hair_Back
						{
							OFFSET 0.000000 3.231903 -17.524799
							CHANNELS 3 Xrotation Yrotation Zrotation
							End Site
							{
								OFFSET 0.000000 19.849884 0.000000
							}
						}
						JOINT newVegas:Hair_Front
						{
							OFFSET 0.000000 31.260406 4.573800
							CHANNELS 3 Xrotation Yrotation Zrotation
							JOINT newVegas:Hair_Front1
							{
								OFFSET 0.000000 2.284103 11.993300
								CHANNELS 3 Xrotation Yrotation Zrotation
								JOINT newVegas:Hair_Front2
								{
									OFFSET 0.000000 2.284103 11.993300
									CHANNELS 3 Xrotation Yrotation Zrotation
									End Site
									{
										OFFSET 0.000000 12.208862 0.000000
									}
								}
							}
						}
						JOINT newVegas:Jowel
						{
							OFFSET 0.000000 -7.458206 6.864100
							CHANNELS 3 Xrotation Yrotation Zrotation
							End Site
							{
								OFFSET 0.000000 19.849884 0.000000
							}
						}
					}
				}
				JOINT newVegas:LeftShoulder
				{
					OFFSET 15.263000 10.923401 -0.547700
					CHANNELS 3 Xrotation Yrotation Zrotation
					JOINT newVegas:LeftArm
					{
						OFFSET 25.438599 -2.830597 -13.032500
						CHANNELS 3 Xrotation Yrotation Zrotation
						JOINT newVegas:LeftForeArm
						{
							OFFSET 29.960503 0.000000 0.000000
							CHANNELS 3 Xrotation Yrotation Zrotation
							JOINT newVegas:LeftHand
							{
								OFFSET 27.849251 0.000000 0.000000
								CHANNELS 3 Xrotation Yrotation Zrotation
								JOINT newVegas:LeftHandThumb1
								{
									OFFSET 4.487587 -3.305161 6.305391
									CHANNELS 3 Xrotation Yrotation Zrotation
									JOINT newVegas:LeftHandThumb2
									{
										OFFSET 5.480453 -3.164139 3.164143
										CHANNELS 3 Xrotation Yrotation Zrotation
										JOINT newVegas:LeftHandThumb3
										{
											OFFSET 5.159721 -2.978973 2.978967
											CHANNELS 3 Xrotation Yrotation Zrotation
											End Site
											{
												OFFSET 2.494507 5.926697 1.738678
											}
										}
									}
								}
								JOINT newVegas:LeftHandIndex1
								{
									OFFSET 18.578728 -0.527832 5.208049
									CHANNELS 3 Xrotation Yrotation Zrotation
									JOINT newVegas:LeftHandIndex2
									{
										OFFSET 3.192009 0.000000 0.000000
										CHANNELS 3 Xrotation Yrotation Zrotation
										JOINT newVegas:LeftHandIndex3
										{
											OFFSET 3.835129 0.000000 0.000000
											CHANNELS 3 Xrotation Yrotation Zrotation
											End Site
											{
												OFFSET -0.034599 3.816971 0.371180
											}
										}
									}
								}
								JOINT newVegas:LeftHandMiddle1
								{
									OFFSET 18.476105 0.000000 0.000000
									CHANNELS 3 Xrotation Yrotation Zrotation
									JOINT newVegas:LeftHandMiddle2
									{
										OFFSET 3.324875 0.000000 0.000000
										CHANNELS 3 Xrotation Yrotation Zrotation
										JOINT newVegas:LeftHandMiddle3
										{
											OFFSET 4.596550 0.000000 0.000000
											CHANNELS 3 Xrotation Yrotation Zrotation
											End Site
											{
												OFFSET 0.057701 4.578827 0.399218
											}
										}
									}
								}
								JOINT newVegas:LeftHandRing1
								{
									OFFSET 17.732719 0.121887 -4.201567
									CHANNELS 3 Xrotation Yrotation Zrotation
									JOINT newVegas:LeftHandRing2
									{
										OFFSET 2.733170 0.000000 0.000000
										CHANNELS 3 Xrotation Yrotation Zrotation
										JOINT newVegas:LeftHandRing3
										{
											OFFSET 3.178268 0.000000 0.000000
											CHANNELS 3 Xrotation Yrotation Zrotation
											End Site
											{
												OFFSET 0.119102 3.170624 0.185394
											}
										}
									}
								}
								JOINT newVegas:LeftHandPinky1
								{
									OFFSET 15.989624 -0.606689 -7.535461
									CHANNELS 3 Xrotation Yrotation Zrotation
									JOINT newVegas:LeftHandPinky2
									{
										OFFSET 2.538986 0.000000 0.000000
										CHANNELS 3 Xrotation Yrotation Zrotation
										JOINT newVegas:LeftHandPinky3
										{
											OFFSET 2.593102 0.000000 0.000000
											CHANNELS 3 Xrotation Yrotation Zrotation
											End Site
											{
												OFFSET -0.150902 2.584198 0.152708
											}
										}
									}
								}
							}
							JOINT newVegas:Left_Sleeve
							{
								OFFSET 0.267448 -0.649796 0.577675
								CHANNELS 3 Xrotation Yrotation Zrotation
								End Site
								{
									OFFSET 0.000000 15.991241 0.000000
								}
							}
							JOINT newVegas:Left_CapeC
							{
								OFFSET 15.715958 -8.608795 -6.935905
								CHANNELS 3 Xrotation Yrotation Zrotation
								JOINT newVegas:Left_CapeC1
								{
									OFFSET 0.000000 -8.688499 0.000000
									CHANNELS 3 Xrotation Yrotation Zrotation
									End Site
									{
										OFFSET 0.000000 8.688499 0.000000
									}
								}
							}
						}
						JOINT newVegas:Left_CapeB
						{
							OFFSET 26.118385 -8.608795 -7.079235
							CHANNELS 3 Xrotation Yrotation Zrotation
							JOINT newVegas:Left_CapeB1
							{
								OFFSET 0.000000 -8.688499 0.000000
								CHANNELS 3 Xrotation Yrotation Zrotation
								End Site
								{
									OFFSET 0.000000 8.688499 0.000000
								}
							}
						}
						JOINT newVegas:Left_CapeA
						{
							OFFSET 5.115639 -8.608795 -10.395809
							CHANNELS 3 Xrotation Yrotation Zrotation
							JOINT newVegas:Left_CapeA1
							{
								OFFSET 0.000000 -8.688499 0.000000
								CHANNELS 3 Xrotation Yrotation Zrotation
								End Site
								{
									OFFSET 0.000000 8.688499 0.000000
								}
							}
						}
					}
				}
				JOINT newVegas:RightShoulder
				{
					OFFSET -15.263000 10.923401 -0.547700
					CHANNELS 3 Xrotation Yrotation Zrotation
					JOINT newVegas:RightArm
					{
						OFFSET -25.438599 -2.830597 -13.032500
						CHANNELS 3 Xrotation Yrotation Zrotation
						JOINT newVegas:RightForeArm
						{
							OFFSET -29.960503 0.000000 0.000000
							CHANNELS 3 Xrotation Yrotation Zrotation
							JOINT newVegas:RightHand
							{
								OFFSET -27.849251 0.000000 0.000000
								CHANNELS 3 Xrotation Yrotation Zrotation
								JOINT newVegas:RightHandThumb1
								{
									OFFSET -4.487587 -3.305161 6.305391
									CHANNELS 3 Xrotation Yrotation Zrotation
									JOINT newVegas:RightHandThumb2
									{
										OFFSET -5.480453 -3.164139 3.164143
										CHANNELS 3 Xrotation Yrotation Zrotation
										JOINT newVegas:RightHandThumb3
										{
											OFFSET -5.159721 -2.978973 2.978967
											CHANNELS 3 Xrotation Yrotation Zrotation
											End Site
											{
												OFFSET -2.494507 5.926697 1.738678
											}
										}
									}
								}
								JOINT newVegas:RightHandIndex1
								{
									OFFSET -18.578728 -0.527832 5.208049
									CHANNELS 3 Xrotation Yrotation Zrotation
									JOINT newVegas:RightHandIndex2
									{
										OFFSET -3.192009 0.000000 0.000000
										CHANNELS 3 Xrotation Yrotation Zrotation
										JOINT newVegas:RightHandIndex3
										{
											OFFSET -3.835129 0.000000 0.000000
											CHANNELS 3 Xrotation Yrotation Zrotation
											End Site
											{
												OFFSET 0.034599 3.816971 0.371180
											}
										}
									}
								}
								JOINT newVegas:RightHandMiddle1
								{
									OFFSET -18.476105 0.000000 0.000000
									CHANNELS 3 Xrotation Yrotation Zrotation
									JOINT newVegas:RightHandMiddle2
									{
										OFFSET -3.324875 0.000000 0.000000
										CHANNELS 3 Xrotation Yrotation Zrotation
										JOINT newVegas:RightHandMiddle3
										{
											OFFSET -4.596550 0.000000 0.000000
											CHANNELS 3 Xrotation Yrotation Zrotation
											End Site
											{
												OFFSET -0.057701 4.578827 0.399218
											}
										}
									}
								}
								JOINT newVegas:RightHandRing1
								{
									OFFSET -17.732719 0.121887 -4.201567
									CHANNELS 3 Xrotation Yrotation Zrotation
									JOINT newVegas:RightHandRing2
									{
										OFFSET -2.733170 0.000000 0.000000
										CHANNELS 3 Xrotation Yrotation Zrotation
										JOINT newVegas:RightHandRing3
										{
											OFFSET -3.178268 0.000000 0.000000
											CHANNELS 3 Xrotation Yrotation Zrotation
											End Site
											{
												OFFSET -0.119102 3.170624 0.185394
											}
										}
									}
								}
								JOINT newVegas:RightHandPinky1
								{
									OFFSET -15.989624 -0.606689 -7.535461
									CHANNELS 3 Xrotation Yrotation Zrotation
									JOINT newVegas:RightHandPinky2
									{
										OFFSET -2.538986 0.000000 0.000000
										CHANNELS 3 Xrotation Yrotation Zrotation
										JOINT newVegas:RightHandPinky3
										{
											OFFSET -2.593102 0.000000 0.000000
											CHANNELS 3 Xrotation Yrotation Zrotation
											End Site
											{
												OFFSET 0.150902 2.584198 0.152708
											}
										}
									}
								}
							}
							JOINT newVegas:Right_CapeC
							{
								OFFSET -15.715958 -8.608795 -6.935905
								CHANNELS 3 Xrotation Yrotation Zrotation
								JOINT newVegas:Right_CapeC1
								{
									OFFSET 0.000000 -8.688499 0.000000
									CHANNELS 3 Xrotation Yrotation Zrotation
									End Site
									{
										OFFSET 0.000000 8.688499 0.000000
									}
								}
							}
							JOINT newVegas:Right_Sleeve
							{
								OFFSET -0.267448 -0.649994 0.577675
								CHANNELS 3 Xrotation Yrotation Zrotation
								End Site
								{
									OFFSET 0.000000 15.991302 0.000000
								}
							}
						}
						JOINT newVegas:Right_CapeA
						{
							OFFSET -5.115540 -8.608795 -10.395824
							CHANNELS 3 Xrotation Yrotation Zrotation
							JOINT newVegas:Right_CapeA1
							{
								OFFSET 0.000000 -8.688499 0.000000
								CHANNELS 3 Xrotation Yrotation Zrotation
								End Site
								{
									OFFSET 0.000000 8.688499 0.000000
								}
							}
						}
						JOINT newVegas:Right_CapeB
						{
							OFFSET -26.118187 -8.608795 -7.079266
							CHANNELS 3 Xrotation Yrotation Zrotation
							JOINT newVegas:Right_CapeB1
							{
								OFFSET 0.000000 -8.688499 0.000000
								CHANNELS 3 Xrotation Yrotation Zrotation
								End Site
								{
									OFFSET 0.000000 8.688499 0.000000
								}
							}
						}
					}
				}
				JOINT newVegas:Left_Collar
				{
					OFFSET 18.625099 8.655502 8.828100
					CHANNELS 3 Xrotation Yrotation Zrotation
					JOINT newVegas:Left_Collar1
					{
						OFFSET 14.783401 10.540405 -1.259500
						CHANNELS 3 Xrotation Yrotation Zrotation
						End Site
						{
							OFFSET 0.000000 18.199875 0.000000
						}
					}
				}
				JOINT newVegas:Collar_Back
				{
					OFFSET 0.000000 15.630707 -20.132601
					CHANNELS 3 Xrotation Yrotation Zrotation
					End Site
					{
						OFFSET 0.000000 22.523010 0.000000
					}
				}
				JOINT newVegas:Left_Peck
				{
					OFFSET 17.239599 -5.132599 25.482599
					CHANNELS 3 Xrotation Yrotation Zrotation
					End Site
					{
						OFFSET 0.000000 22.523010 0.000000
					}
				}
				JOINT newVegas:Right_Peck
				{
					OFFSET -17.239599 -5.132202 25.482599
					CHANNELS 3 Xrotation Yrotation Zrotation
					End Site
					{
						OFFSET 0.000000 22.523010 0.000000
					}
				}
				JOINT newVegas:Right_Collar
				{
					OFFSET -18.625099 8.655792 8.828100
					CHANNELS 3 Xrotation Yrotation Zrotation
					JOINT newVegas:Right_Collar1
					{
						OFFSET -14.783401 10.539993 -1.259500
						CHANNELS 3 Xrotation Yrotation Zrotation
						End Site
						{
							OFFSET 0.000000 18.199631 0.000000
						}
					}
				}
			}
		}
		JOINT newVegas:Belly
		{
			OFFSET 0.000000 -6.540398 9.014299
			CHANNELS 3 Xrotation Yrotation Zrotation
			End Site
			{
				OFFSET 0.000000 11.566666 0.000000
			}
		}
	}
	JOINT newVegas:ElvisFacialAnim_Joint
	{
		OFFSET 1.000000 -95.330101 -8.825800
		CHANNELS 3 Xrotation Yrotation Zrotation
		End Site
		{
			OFFSET 0.000000 35.315800 0.000000
		}
	}
}
MOTION
Frames: 4
Frame Time: 0.033333
-7.172473 86.265160 156.303864 -180.556611 224.788069 176.925805 -0.000000 -0.000000 -0.000000 -44.294931 2.813982 23.833540 52.135609 7.447292 0.409602 -1.083476 9.409841 -16.796837 0.000000 0.000001 0.000000 -0.000000 0.000001 0.000002 -45.086523 -0.045402 -18.275745 57.408327 3.118178 0.180423 -10.324274 8.506411 18.237302 -0.000000 -0.000001 -0.000000 0.000001 0.000001 -0.000000 13.036105 -0.172554 2.080431 2.745758 -0.125240 1.441528 2.741536 -0.165029 1.461200 0.609761 1.283139 -0.938173 0.609754 1.283146 -0.938161 0.000001 0.000002 0.000000 0.609836 1.283237 -0.938196 0.609685 1.283081 -0.938160 -0.000001 -0.000003 0.000002 0.000001 0.000002 0.000000 2.679247 -3.866495 2.281132 -69.966832 -52.564303 -57.871749 0.000129 -77.447897 0.000137 7.933313 -4.382579 23.308453 -7.655014 -21.471482 13.325604 8.455557 10.098815 -14.423421 -0.000000 0.000000 -0.000003 -2.579571 -12.061738 -12.433917 3.031074 5.128731 -61.144345 0.000000 0.000001 0.000000 -3.391333 -1.693052 -31.638372 1.979826 4.390645 -48.526315 -0.000000 0.000000 -0.000001 -2.865333 -0.044760 -34.942814 2.879764 5.042717 -59.437460 0.000001 -0.000002 0.000001 -2.949278 3.350427 -40.302119 1.390334 3.790218 -40.276533 0.000004 -0.000000 0.000002 0.000000 -0.000000 -0.000000 0.000000 -0.000000 -0.000000 -0.000000 -0.000000 0.000000 -0.000003 0.000001 -0.000001 -0.000003 0.000000 0.000000 -0.000003 0.000001 -0.000001 -0.000004 0.000001 -0.000000 3.021545 17.977978 5.742669 -42.634628 37.835546 55.060737 0.000418 87.824806 -0.000517 -28.054485 30.677347 6.746691 -14.786328 11.868588 3.039670 18.898997 -22.871785 3.225912 0.000001 -0.000006 -0.000001 -10.662757 5.825470 53.107607 1.747169 -3.637669 51.298662 0.000001 0.000000 0.000002 -2.845602 -0.150972 37.995065 2.038290 -3.852409 55.753355 -0.000000 0.000001 -0.000001 1.381149 -5.617908 36.360147 2.054870 -3.863605 55.999635 -0.000004 0.000001 -0.000001 -0.284558 -12.773787 29.359858 2.349869 -4.046518 60.274917 0.000002 0.000002 -0.000003 -0.000000 -0.000001 0.000000 -0.000000 -0.000001 0.000000 -0.000000 -0.000001 0.000000 0.000001 -0.000002 -0.000002 -0.000000 -0.000002 -0.000001 0.000001 -0.000002 -0.000002 0.000000 -0.000002 -0.000000 0.000001 -0.000005 0.000002 0.000001 -0.000005 0.000002 0.000001 -0.000005 0.000002 0.000001 -0.000005 0.000002 0.000001 -0.000005 0.000002 0.000001 -0.000005 0.000002 0.000001 -0.000005 0.000002 -0.000000 -0.000001 -0.000000 -0.000000 -0.000000 -0.000000 
-6.093239 84.746002 154.790604 -180.374805 232.307629 176.159390 0.000000 0.000000 -0.000000 -46.551643 2.969658 30.244549 58.318894 6.574835 -1.348756 -3.063358 10.906786 -18.466521 0.000000 -0.000000 0.000000 0.000000 -0.000001 0.000001 -47.820979 2.025219 -20.715079 61.237010 2.165611 -1.150560 -8.829079 7.954667 15.971433 -0.000000 -0.000000 0.000000 0.000000 -0.000001 -0.000002 14.488493 -3.564684 3.138798 2.950270 -1.092856 1.023401 2.938315 -1.098575 1.067909 0.520414 1.646201 -1.095217 0.520419 1.646182 -1.095216 0.000000 0.000002 -0.000002 0.520481 1.646206 -1.095222 0.520334 1.646195 -1.095213 -0.000001 -0.000001 -0.000000 0.000000 0.000002 -0.000002 2.752283 -3.969594 3.533395 -57.180062 -52.008923 -51.055961 -0.000029 -63.640124 -0.000020 14.525910 -7.382787 23.106837 -7.737728 -22.164367 13.134160 8.160899 9.472142 -14.593269 0.000001 0.000005 -0.000002 -2.511623 -12.144239 -11.748347 2.966656 5.092844 -60.421185 -0.000001 -0.000000 -0.000002 -3.333000 -1.789018 -30.954817 1.925599 4.342245 -47.814053 -0.000001 -0.000001 -0.000002 -2.827236 -0.137781 -34.257002 2.817612 5.005637 -58.727770 0.000000 -0.000001 0.000002 -3.001971 3.290910 -39.605204 1.344546 3.735649 -39.578942 -0.000001 -0.000006 -0.000005 -0.000001 0.000000 -0.000000 -0.000001 0.000000 -0.000000 -0.000002 0.000000 -0.000000 -0.000002 -0.000004 0.000000 -0.000002 -0.000005 -0.000001 -0.000002 -0.000004 0.000000 -0.000002 -0.000004 -0.000001 3.288706 15.542983 4.623931 -41.820254 43.018857 57.130776 0.003439 90.560420 -0.004714 -23.729254 30.100651 5.014959 -14.786326 11.868588 3.039665 18.898997 -22.871787 3.225917 -0.000001 -0.000002 -0.000001 -10.662753 5.825465 53.107607 1.747173 -3.637665 51.298655 -0.000001 0.000000 -0.000000 -2.845600 -0.150976 37.995069 2.038288 -3.852404 55.753352 0.000004 -0.000001 0.000001 1.381149 -5.617909 36.360143 2.054863 -3.863603 55.999632 -0.000001 0.000001 -0.000002 -0.284556 -12.773786 29.359858 2.349870 -4.046524 60.274930 -0.000002 0.000002 -0.000000 -0.000002 0.000001 -0.000001 -0.000002 0.000000 -0.000001 -0.000002 0.000000 -0.000001 0.000001 -0.000002 0.000006 0.000001 -0.000001 0.000007 0.000001 -0.000002 0.000006 0.000001 -0.000001 0.000009 0.000003 -0.000003 0.000002 0.000003 -0.000003 0.000002 0.000003 -0.000003 0.000002 0.000003 -0.000003 0.000002 0.000003 -0.000003 0.000002 0.000003 -0.000003 0.000002 0.000003 -0.000003 0.000002 -0.000000 -0.000000 0.000000 0.000000 0.000000 -0.000000 
-5.382299 83.230331 152.988815 -180.090054 240.081204 175.536149 -0.000000 -0.000001 -0.000000 -48.354072 3.479373 37.741935 63.238741 5.609843 -3.361653 -3.973244 11.610974 -19.087689 -0.000000 0.000000 0.000000 -0.000001 0.000001 0.000002 -48.194163 3.869853 -21.835490 60.343287 -1.328066 -3.637957 -5.740519 7.814272 10.578669 0.000000 -0.000001 0.000002 -0.000000 -0.000000 -0.000000 15.258293 -3.896589 3.451064 3.093419 -1.201267 0.836598 3.085221 -1.194895 0.883288 0.451224 1.819994 -1.140606 0.451218 1.820010 -1.140616 0.000002 0.000000 0.000001 0.451213 1.820020 -1.140619 0.451293 1.820022 -1.140619 -0.000000 -0.000002 0.000000 0.000002 0.000000 0.000000 2.998880 -6.030837 0.946944 -42.132435 -46.447598 -41.577346 -0.000000 -52.941964 0.000004 14.595518 -9.878672 20.664942 -7.812936 -22.781500 12.966883 7.898485 8.918349 -14.756767 0.000003 0.000002 0.000001 -2.450587 -12.217603 -11.139612 2.909864 5.060316 -59.779284 0.000000 -0.000002 -0.000003 -3.280392 -1.873528 -30.347873 1.877974 4.298722 -47.181854 -0.000000 0.000001 -0.000006 -2.792605 -0.219891 -33.648097 2.762818 4.972078 -58.097814 -0.000001 0.000001 0.000000 -3.048627 3.237110 -38.986672 1.304479 3.686729 -38.959744 0.000001 -0.000003 -0.000000 -0.000002 0.000000 0.000000 -0.000002 0.000000 0.000000 -0.000003 -0.000000 0.000001 0.000000 -0.000003 0.000001 0.000001 -0.000004 -0.000000 0.000000 -0.000003 0.000001 -0.000001 -0.000003 -0.000000 3.652868 11.536001 1.301111 -41.924422 46.309700 60.654177 0.000178 93.962667 -0.000219 -18.982902 29.766856 0.378403 -14.786330 11.868585 3.039666 18.898995 -22.871783 3.225912 0.000000 -0.000001 -0.000000 -10.662757 5.825471 53.107603 1.747167 -3.637667 51.298658 0.000001 0.000002 0.000002 -2.845605 -0.150981 37.995069 2.038285 -3.852408 55.753352 0.000002 0.000002 -0.000000 1.381146 -5.617906 36.360150 2.054866 -3.863610 55.999632 0.000000 -0.000001 -0.000002 -0.284560 -12.773785 29.359858 2.349873 -4.046522 60.274924 -0.000002 -0.000000 0.000000 -0.000002 0.000000 -0.000000 -0.000002 0.000001 -0.000001 -0.000002 0.000000 0.000000 0.000001 -0.000001 0.000003 0.000001 0.000001 0.000005 0.000001 -0.000001 0.000003 0.000001 0.000001 0.000007 -0.000000 0.000002 0.000001 -0.000000 0.000002 0.000001 -0.000000 0.000002 0.000001 -0.000000 0.000002 0.000001 -0.000000 0.000002 0.000001 -0.000000 0.000002 0.000001 -0.000000 0.000002 0.000001 0.000000 0.000001 -0.000000 -0.000000 -0.000001 -0.000000 
-5.161386 81.474899 150.850296 -178.606209 247.053352 175.828221 -0.000000 0.000000 -0.000000 -49.922170 3.159121 45.367250 67.276298 4.435066 -4.726960 -4.555520 12.106264 -20.485991 0.000000 0.000001 -0.000000 -0.000001 -0.000001 -0.000000 -46.324891 4.161502 -23.580081 55.064285 -5.983388 -5.943951 -3.159052 9.434125 6.566649 0.000000 -0.000001 -0.000001 0.000000 -0.000000 -0.000000 14.970057 -2.827496 3.434257 3.113150 -0.914660 0.901650 3.105207 -0.912356 0.939598 0.429404 1.898060 -1.140468 0.429409 1.898032 -1.140453 0.000001 0.000002 -0.000000 0.429413 1.897979 -1.140452 0.429333 1.898056 -1.140464 0.000001 -0.000001 -0.000000 0.000001 0.000002 -0.000000 3.094213 -8.592697 -4.012486 -29.773870 -35.863145 -33.830566 0.000000 -47.980621 0.000007 11.922134 -10.801660 18.133298 -7.877775 -23.304336 12.827500 7.676118 8.452484 -14.904217 0.000002 0.000000 -0.000001 -2.398492 -12.279668 -10.625244 2.862162 5.032337 -59.237042 0.000001 0.000002 0.000001 -3.235378 -1.944411 -29.835042 1.838116 4.261550 -46.647825 -0.000001 0.000000 0.000001 -2.762774 -0.288891 -33.133661 2.716845 4.943265 -57.565674 -0.000000 0.000001 0.000000 -3.089690 3.188764 -38.464436 1.271037 3.645078 -38.436715 0.000001 -0.000003 -0.000002 -0.000002 0.000001 -0.000002 -0.000002 0.000001 -0.000002 -0.000003 0.000001 -0.000002 -0.000001 0.000000 0.000005 -0.000001 -0.000001 0.000004 -0.000001 0.000000 0.000005 -0.000002 0.000001 0.000004 3.759416 7.616644 -2.340932 -41.496172 48.234205 64.107322 -0.000180 98.039019 0.000232 -15.714389 29.133117 -3.279663 -14.786328 11.868589 3.039667 18.898990 -22.871787 3.225919 -0.000003 -0.000001 -0.000002 -10.662753 5.825470 53.107600 1.747171 -3.637667 51.298655 -0.000003 0.000002 0.000000 -2.845599 -0.150973 37.995062 2.038288 -3.852410 55.753349 -0.000001 -0.000000 0.000000 1.381155 -5.617905 36.360143 2.054866 -3.863603 55.999632 0.000001 0.000002 -0.000002 -0.284554 -12.773784 29.359858 2.349873 -4.046528 60.274924 -0.000000 0.000003 0.000002 0.000002 0.000001 -0.000001 0.000002 -0.000001 -0.000002 0.000002 0.000001 -0.000000 0.000001 0.000002 -0.000002 0.000000 0.000002 -0.000002 0.000001 0.000002 -0.000002 0.000000 0.000002 -0.000000 0.000001 0.000002 -0.000001 0.000001 0.000002 -0.000001 0.000001 0.000002 -0.000001 0.000001 0.000002 -0.000001 0.000001 0.000002 -0.000001 0.000001 0.000002 -0.000001 0.000001 0.000002 -0.000001 0.000001 -0.000001 0.000000 -0.000000 0.000000 -0.000000 
